<svg width="310" height="78" viewBox="0 0 310 78" fill="none" xmlns="http://www.w3.org/2000/svg">
<path d="M0 61.1628H9.00019V35.0483H34.3612V61.238H43.3643V26.458H26.1145V3.77954H17.1806V26.458H0V61.1628Z" fill="#00AEFF"/>
<path d="M93.8071 40.175C93.8071 47.0785 91.8428 52.2848 87.9143 55.7938C83.9858 59.2646 78.5126 61 71.4946 61H59.9379V20.151H72.7533C77.0251 20.151 80.7247 20.9138 83.8523 22.4395C87.018 23.9651 89.459 26.2154 91.1754 29.1904C92.9298 32.1654 93.8071 35.827 93.8071 40.175ZM84.8249 40.4039C84.8249 35.9032 83.8332 32.585 81.8499 30.4491C79.8666 28.3132 76.9869 27.2452 73.211 27.2452H68.5768V53.8486H72.2956C80.6485 53.8486 84.8249 49.367 84.8249 40.4039ZM112.699 29.1332C116.894 29.1332 120.098 30.0486 122.31 31.8794C124.56 33.672 125.686 36.4372 125.686 40.175V61H119.736L118.076 56.7664H117.848C116.513 58.4446 115.101 59.6651 113.614 60.4279C112.126 61.1907 110.086 61.5721 107.492 61.5721C104.708 61.5721 102.4 60.7712 100.57 59.1692C98.739 57.5673 97.8236 55.0691 97.8236 51.6745C97.8236 48.3563 98.9869 45.9152 101.313 44.3515C103.64 42.7877 107.13 41.9104 111.783 41.7197L117.218 41.5481V40.175C117.218 38.535 116.78 37.3335 115.902 36.5707C115.063 35.8079 113.881 35.4265 112.355 35.4265C110.83 35.4265 109.342 35.6553 107.893 36.113C106.443 36.5326 104.994 37.0665 103.545 37.7149L100.741 31.9366C102.381 31.0975 104.231 30.43 106.291 29.9342C108.35 29.4002 110.486 29.1332 112.699 29.1332ZM117.218 46.5255L113.9 46.6399C111.154 46.7162 109.247 47.212 108.179 48.1274C107.111 49.0428 106.577 50.2442 106.577 51.7317C106.577 53.0285 106.958 53.963 107.721 54.5351C108.484 55.0691 109.476 55.3361 110.696 55.3361C112.527 55.3361 114.072 54.8021 115.33 53.7341C116.589 52.6281 117.218 51.0833 117.218 49.1V46.5255ZM145.852 54.764C146.805 54.764 147.721 54.6877 148.598 54.5351C149.475 54.3444 150.352 54.0965 151.23 53.7914V60.1418C150.314 60.5614 149.17 60.9046 147.797 61.1716C146.462 61.4386 144.994 61.5721 143.392 61.5721C141.523 61.5721 139.845 61.267 138.357 60.6567C136.908 60.0465 135.744 58.9976 134.867 57.5101C134.028 56.0226 133.609 53.9249 133.609 51.2168V36.1702H129.547V32.5659L134.238 29.7053L136.698 23.126H142.133V29.7625H150.886V36.1702H142.133V51.2168C142.133 52.3992 142.476 53.2955 143.163 53.9058C143.849 54.4779 144.746 54.764 145.852 54.764ZM168.597 29.1332C172.792 29.1332 175.996 30.0486 178.208 31.8794C180.459 33.672 181.584 36.4372 181.584 40.175V61H175.634L173.975 56.7664H173.746C172.411 58.4446 171 59.6651 169.512 60.4279C168.025 61.1907 165.984 61.5721 163.391 61.5721C160.606 61.5721 158.299 60.7712 156.468 59.1692C154.637 57.5673 153.722 55.0691 153.722 51.6745C153.722 48.3563 154.885 45.9152 157.212 44.3515C159.538 42.7877 163.028 41.9104 167.682 41.7197L173.117 41.5481V40.175C173.117 38.535 172.678 37.3335 171.801 36.5707C170.962 35.8079 169.779 35.4265 168.254 35.4265C166.728 35.4265 165.241 35.6553 163.791 36.113C162.342 36.5326 160.892 37.0665 159.443 37.7149L156.64 31.9366C158.28 31.0975 160.13 30.43 162.189 29.9342C164.249 29.4002 166.385 29.1332 168.597 29.1332ZM173.117 46.5255L169.798 46.6399C167.052 46.7162 165.145 47.212 164.077 48.1274C163.009 49.0428 162.475 50.2442 162.475 51.7317C162.475 53.0285 162.857 53.963 163.62 54.5351C164.382 55.0691 165.374 55.3361 166.595 55.3361C168.425 55.3361 169.97 54.8021 171.229 53.7341C172.487 52.6281 173.117 51.0833 173.117 49.1V46.5255ZM212.792 61H189.278V20.151H212.792V27.2452H197.917V36.2274H211.762V43.3217H197.917V53.8486H212.792V61ZM231.703 29.1332C235.898 29.1332 239.102 30.0486 241.314 31.8794C243.565 33.672 244.69 36.4372 244.69 40.175V61H238.74L237.081 56.7664H236.852C235.517 58.4446 234.106 59.6651 232.618 60.4279C231.131 61.1907 229.09 61.5721 226.496 61.5721C223.712 61.5721 221.405 60.7712 219.574 59.1692C217.743 57.5673 216.828 55.0691 216.828 51.6745C216.828 48.3563 217.991 45.9152 220.318 44.3515C222.644 42.7877 226.134 41.9104 230.787 41.7197L236.222 41.5481V40.175C236.222 38.535 235.784 37.3335 234.907 36.5707C234.067 35.8079 232.885 35.4265 231.359 35.4265C229.834 35.4265 228.346 35.6553 226.897 36.113C225.448 36.5326 223.998 37.0665 222.549 37.7149L219.745 31.9366C221.386 31.0975 223.235 30.43 225.295 29.9342C227.355 29.4002 229.491 29.1332 231.703 29.1332ZM236.222 46.5255L232.904 46.6399C230.158 46.7162 228.251 47.212 227.183 48.1274C226.115 49.0428 225.581 50.2442 225.581 51.7317C225.581 53.0285 225.962 53.963 226.725 54.5351C227.488 55.0691 228.48 55.3361 229.7 55.3361C231.531 55.3361 233.076 54.8021 234.334 53.7341C235.593 52.6281 236.222 51.0833 236.222 49.1V46.5255ZM269.147 29.1904C269.566 29.1904 270.062 29.2095 270.634 29.2476C271.206 29.2858 271.664 29.343 272.007 29.4193L271.378 37.4289C271.073 37.3526 270.672 37.2954 270.177 37.2572C269.681 37.181 269.242 37.1428 268.861 37.1428C267.411 37.1428 266.019 37.4098 264.684 37.9438C263.349 38.4396 262.262 39.2596 261.423 40.4039C260.622 41.5481 260.222 43.1119 260.222 45.0952V61H251.697V29.7625H258.162L259.421 35.026H259.821C260.737 33.4241 261.995 32.051 263.597 30.9068C265.199 29.7625 267.049 29.1904 269.147 29.1904ZM293.695 29.1904C297.051 29.1904 299.74 30.1058 301.761 31.9366C303.783 33.7292 304.794 36.6279 304.794 40.6327V61H296.269V42.7495C296.269 40.4992 295.869 38.821 295.068 37.7149C294.267 36.5707 292.989 35.9986 291.234 35.9986C288.641 35.9986 286.867 36.8949 285.914 38.6875C284.96 40.442 284.484 42.9784 284.484 46.2967V61H275.959V29.7625H282.481L283.625 33.7673H284.083C285.075 32.1654 286.429 31.0021 288.145 30.2775C289.9 29.5528 291.749 29.1904 293.695 29.1904Z" fill="url(#paint0_linear)"/>
<defs>
<linearGradient id="paint0_linear" x1="37.1976" y1="19.693" x2="238.503" y2="70.7486" gradientUnits="userSpaceOnUse">
<stop stop-color="#00AEFF"/>
<stop offset="1" stop-color="#40C486"/>
</linearGradient>
</defs>
</svg>
